PathFileType	4	(X/Y/Z)	C:\Users\Biomechanik\SynologyDrive\AlexP\Athlete_03\Athlete_3_25_03_31\Walking_09\marker_experimental.trc
DataRate	CameraRate	NumFrames	NumMarkers	Units	OrigDataRate	OrigDataStartFrame	OrigNumFrames
200.000000	200.000000	4	53	mm	200.000000	138	222
Frame#	Time	GLAB			RFHD			LFHD			C7			T6			SPINMOL			SPINM2			SPINM3			T12			BELTOL			BELT2			BELT3			SACROL			SACR2			SACR3			LTHOL			LTH2			LTH3			LSHAOL			LSHA2			LSHA3			LHEE			LTOE			LM5			RTH2			RTH3			RSHAOL			RSHA2			RSHA3			RHEE			RTOE			RM5			STRN			XIPH			LACR			LUAOL			LUA2			LUA3			LLAOL			LLA2			LLA3			LWRR			LWRU			RACR			RUAOL			RUA2			RUA3			RLAOL			RLA2			RLA3			RWRR			RWRU			RTHOL			
		X1	Y1	Z1	X2	Y2	Z2	X3	Y3	Z3	X4	Y4	Z4	X5	Y5	Z5	X6	Y6	Z6	X7	Y7	Z7	X8	Y8	Z8	X9	Y9	Z9	X10	Y10	Z10	X11	Y11	Z11	X12	Y12	Z12	X13	Y13	Z13	X14	Y14	Z14	X15	Y15	Z15	X16	Y16	Z16	X17	Y17	Z17	X18	Y18	Z18	X19	Y19	Z19	X20	Y20	Z20	X21	Y21	Z21	X22	Y22	Z22	X23	Y23	Z23	X24	Y24	Z24	X25	Y25	Z25	X26	Y26	Z26	X27	Y27	Z27	X28	Y28	Z28	X29	Y29	Z29	X30	Y30	Z30	X31	Y31	Z31	X32	Y32	Z32	X33	Y33	Z33	X34	Y34	Z34	X35	Y35	Z35	X36	Y36	Z36	X37	Y37	Z37	X38	Y38	Z38	X39	Y39	Z39	X40	Y40	Z40	X41	Y41	Z41	X42	Y42	Z42	X43	Y43	Z43	X44	Y44	Z44	X45	Y45	Z45	X46	Y46	Z46	X47	Y47	Z47	X48	Y48	Z48	X49	Y49	Z49	X50	Y50	Z50	X51	Y51	Z51	X52	Y52	Z52	X53	Y53	Z53	

139	0.6900000000000001	492.1420288085936	1584.48486328125	192.2762298583985	442.5496215820311	1614.4736328125	255.488739013672	448.9212036132811	1602.286743164062	117.6192474365235	269.1285400390623	1421.8134765625	197.2244262695313	213.5399780273436	1253.472045898438	203.965087890625	205.7991943359374	1213.271850585938	183.8892974853516	199.9606323242186	1206.870849609375	233.4904937744141	209.7497406005859	1149.498413085938	201.2613677978516	232.7561035156249	1083.631103515625	204.5416412353516	200.2393035888671	1047.908447265625	189.0713958740235	199.1703338623046	1045.732421875	239.5517120361328	194.8197937011718	985.7659912109375	210.1016235351563	211.9069671630859	936.8931884765625	183.594711303711	210.1851654052733	932.85400390625	235.2516174316407	199.1615447998046	874.7622680664062	204.1757202148438	388.9055480957031	659.8129272460938	26.1815261840821	356.5010375976562	590.5126342773438	45.67831420898444	404.6630859374999	601.9586791992188	39.19344711303718	452.6838073730469	315.3971862792969	42.35538101196298	410.6835021972656	248.562240600586	53.42065811157234	460.4428100585938	254.338623046875	51.35423660278329	404.7642211914062	64.33479309082034	144.8841857910157	625.4144287109375	47.5706825256348	145.2368164062501	578.3549194335938	30.32543945312504	44.94344711303722	318.5649414062499	609.7555541992188	428.6823425292969	277.2803649902343	605.6509399414062	400.8068542480469	160.006866455078	407.537109375	415.0937500000001	128.2223205566405	335.0668029785156	411.8919982910156	109.6295776367187	377.6572875976562	394.0303344726562	-45.63019561767585	286.177490234375	277.95849609375	-17.81555175781256	79.15531921386719	298.3943176269531	-57.19826126098641	126.3166961669922	393.3796997070312	438.6827697753905	1321.46337890625	197.5227813720704	456.8685913085936	1177.760375976562	205.0444641113282	342.3401794433593	1376.36279296875	21.88880538940436	315.8932495117187	1216.310668945312	-70.82927703857416	294.3683776855468	1155.433227539062	-85.35139465332026	342.2967834472656	1155.908081054688	-67.39093017578119	299.3402709960937	952.7947998046875	-105.4353637695312	253.622329711914	892.1103515625	-83.13877868652339	298.2950134277343	891.2316284179688	-105.2816162109374	306.1592712402343	787.4838256835938	-109.2761535644531	355.0982666015624	782.9153442382812	-47.19557571411126	358.1181335449218	1384.553588867188	366.5730285644532	351.571075439453	1240.1669921875	469.2729187011719	378.8499755859373	1180.213745117188	478.3507995605469	330.2192993164061	1182.602172851562	494.6178894042969	403.8469238281248	966.6285400390625	525.2509155273439	475.9628295898436	936.0066528320312	542.6155395507814	435.5885925292967	912.8683471679688	523.4440307617189	501.2840270996092	849.664794921875	526.7637939453126	536.5291137695311	854.162841796875	452.9353332519532	270.230010986328	666.3942260742188	401.9364013671876	
140	0.6950000000000001	499.1246643066405	1585.442016601562	191.391830444336	449.4971923828123	1615.528564453125	254.5368041992188	455.9766845703124	1603.195922851562	116.6778106689454	276.027862548828	1422.87841796875	196.2813873291016	220.4221801757811	1254.475708007812	202.9220123291016	212.7143402099608	1214.274780273438	182.7979583740235	206.8597106933592	1207.824096679688	232.3939056396485	216.7033538818359	1150.488525390625	200.1161346435547	239.8137054443359	1084.590087890625	203.3228912353516	207.0978851318359	1048.510131835938	187.7505798339844	205.9798278808593	1046.31005859375	238.2303771972657	201.7384948730468	986.3582763671875	208.7527313232422	218.9320373535155	937.7366943359375	182.438461303711	217.3151397705077	933.5966186523438	234.1021575927735	206.2780151367187	875.5523071289062	202.908935546875	393.8454284667968	660.320556640625	25.6702957153321	360.7213439941406	591.420654296875	45.43519973754889	408.9586486816406	602.3665771484375	38.79605484008797	454.5221557617188	315.4603271484375	42.40629959106454	412.0389099121094	248.9654083251953	53.6649475097657	461.8494567871094	254.3448944091797	51.33072280883798	404.9696655273438	64.55094146728518	145.1533203125001	625.5568237304688	47.22494506835941	145.4985504150392	578.3416137695312	30.43997001647953	44.98368835449229	330.0475769042968	610.2714233398438	428.3058776855469	288.906036376953	605.4366455078125	400.3571166992188	174.0749511718749	409.0802001953125	414.5715637207032	141.6497955322264	336.8807373046875	411.2136840820312	123.521141052246	379.6331481933594	393.2601623535156	-32.57976531982428	289.7256469726562	276.0675659179688	-5.503600597381652	82.22480010986328	298.1703186035156	-45.17399597167977	130.5685424804688	392.3525085449219	445.6090087890624	1322.504760742188	196.8656463623048	463.8106079101561	1178.805419921875	204.3228149414063	349.7570190429687	1377.3681640625	21.09113121032721	324.5351867675781	1217.239990234375	-71.74195861816401	303.3990173339843	1156.27490234375	-86.40315246582026	351.1653442382812	1156.944458007812	-68.0217208862304	309.7502136230468	953.4906616210938	-106.3629684448242	264.5343017578124	892.37890625	-84.19641876220699	309.3352661132812	891.90771484375	-106.0909957885742	318.2572326660156	788.2369995117188	-109.8499145507812	367.0207519531249	784.2969360351562	-47.52152252197259	364.8422546386718	1385.6064453125	365.7818298339844	358.0025024414061	1241.135620117188	468.3981933593751	385.0953063964842	1181.075439453125	477.3892211914063	336.497344970703	1183.629272460938	493.7572326660157	408.1124267578123	967.135009765625	524.5603637695314	479.7160644531248	935.590576171875	542.4724731445314	439.1525268554686	912.9054565429688	523.0994262695314	503.9740295410155	848.9073486328125	527.0864257812501	539.4710083007811	852.4126586914062	453.3277893066407	280.8479614257811	666.0679931640625	401.3252868652344	
141	0.7000000000000001	506.0915527343748	1586.393432617188	190.5551147460938	456.4341430664061	1616.583374023438	253.6336364746095	463.0177307128905	1604.10693359375	115.785011291504	282.889190673828	1423.960327148438	195.3885345458985	227.259552001953	1255.497192382812	201.8992767333985	219.5841827392577	1215.29638671875	181.7227630615235	213.7109985351561	1208.79345703125	231.3136444091797	223.6095123291015	1151.49609375	198.9823455810547	246.8238220214843	1085.567749023438	202.1194305419922	213.938980102539	1049.148681640625	186.4022521972657	212.7612304687499	1046.9296875	236.8817138671875	208.6335449218749	986.9888305664062	207.3816375732422	225.9167022705077	938.6300659179688	181.2657775878907	224.4022521972655	934.3972778320312	232.9340057373047	213.3526153564452	876.3975219726562	201.6364135742188	398.6882324218749	660.84814453125	25.18673515319832	364.8317565917968	592.3580322265625	45.20652389526374	413.1378479003906	602.8046264648438	38.41210556030281	456.300048828125	315.52880859375	42.42756271362313	413.3560485839844	249.361312866211	53.84861373901375	463.2119750976562	254.3618774414063	51.27911376953134	405.1522521972656	64.75468444824222	145.4065093994141	625.682373046875	46.94501876831058	145.7294464111329	578.328857421875	30.54266738891605	45.02972412109386	341.4366149902343	610.952392578125	427.9170227050782	300.4706420898436	605.3790283203125	399.8672180175782	188.1406402587889	410.6931457519531	413.9375000000001	155.1385345458983	338.7460632324219	410.4453430175782	137.4374084472655	381.6296997070312	392.392578125	-19.53403472900397	292.9093017578125	274.1582946777344	7.594048023223817	85.16447448730469	297.85498046875	-32.38047790527352	134.4640197753906	391.3175048828125	452.4940185546874	1323.547485351562	196.2522888183595	470.7080993652343	1179.858032226562	203.6309661865235	357.1289367675781	1378.39599609375	20.34095573425299	333.1727905273437	1218.20458984375	-72.60678100585932	312.4418945312499	1157.153686523438	-87.41444396972651	360.0370788574218	1158.023681640625	-68.60689544677727	320.2243347167968	954.245361328125	-107.2876739501953	275.5213623046874	892.69677734375	-85.27513885498041	320.4520568847656	892.6489868164062	-106.9024353027343	330.4497680664062	789.0668334960938	-110.430305480957	379.0263061523437	785.7543334960938	-47.85177230834954	371.514434814453	1386.644653320312	365.0389709472657	364.3805236816405	1242.091064453125	467.5668945312501	391.3007812499998	1181.932495117188	476.4783325195313	342.7341918945311	1184.641845703125	492.9450988769532	412.357208251953	967.6669921875	523.9249267578126	483.4342346191405	935.21533203125	542.3682250976564	442.6930541992186	912.9816284179688	522.8016967773439	506.6291198730467	848.2052612304688	527.4458618164064	542.3415527343749	850.722412109375	453.7557067871095	291.386016845703	665.87890625	400.6817016601563	
142	0.705	513.0427856445311	1587.338256835938	189.7664947509766	463.3601989746092	1617.635131835938	252.7807006835938	470.044219970703	1605.020751953125	114.9417343139649	289.7132873535155	1425.056274414062	194.5430297851563	234.0549774169921	1256.533203125	200.896957397461	226.4116363525389	1216.333984375	180.6650390625	220.5175323486327	1209.777099609375	230.2508544921875	230.4713134765624	1152.518676757812	197.8625030517578	253.7880554199218	1086.5634765625	200.9345397949219	220.7668457031249	1049.837890625	185.0379943847657	219.5207061767577	1047.604614257812	235.5172729492188	215.5067443847655	987.6713256835938	205.9994049072266	232.8623962402343	939.5748901367188	180.0907287597657	231.4495544433593	935.2572021484375	231.7612457275391	220.3863677978515	877.2996215820312	200.3729858398438	403.4485473632812	661.400146484375	24.72052574157722	368.8423461914062	593.3296508789062	44.97440719604499	417.2140808105468	603.2763061523438	38.02870941162117	458.0315551757812	315.5997314453125	42.41601562500009	414.6472778320312	249.7433471679688	53.95149993896492	464.5442504882812	254.3866424560547	51.19975280761727	405.313720703125	64.94927215576175	145.6415252685548	625.7929077148438	46.72184371948246	145.929656982422	578.3167724609375	30.63082122802738	45.07815170288097	352.7343444824218	611.7879028320312	427.5145568847657	311.9733276367186	605.467529296875	399.3410644531251	202.1926116943358	412.3702697753906	413.1803283691407	168.6730804443358	340.6565856933594	409.5919494628907	151.366485595703	383.638427734375	391.4190063476562	-6.487835884094306	295.7112426757812	272.2468872070312	21.4455833435058	87.93491363525391	297.4429016113281	-18.86419677734383	137.9621734619141	390.2715759277344	459.3399963378905	1324.593505859375	195.6785736083985	477.5641479492186	1180.919311523438	202.9652557373048	364.4510803222656	1379.447265625	19.63554191589362	341.7977905273437	1219.205078125	-73.42507171630854	321.4913940429687	1158.069580078125	-88.38732910156244	368.9066467285156	1159.1474609375	-69.14936065673821	330.7605285644531	955.0617065429688	-108.2076263427734	286.5809326171874	893.0676879882812	-86.37457275390619	331.6428833007812	893.4588623046875	-107.7136764526367	342.7326049804687	789.9776000976562	-111.0158462524413	391.1080627441406	787.2906494140625	-48.18392562866204	378.1346435546874	1387.6689453125	364.3422546386719	370.7011108398436	1243.032958984375	466.7774353027344	397.4611511230467	1182.784545898438	475.6180419921876	348.9233398437498	1185.63916015625	492.1777343750001	416.5814208984373	968.225830078125	523.3445434570314	487.118682861328	934.884033203125	542.3017578125001	446.2114257812498	913.0989990234375	522.5510864257814	509.2523803710936	847.560546875	527.8410034179689	545.1452026367186	849.0977783203125	454.217987060547	301.8461914062499	665.8160400390625	400.0074768066407	
